<svg xmlns="http://www.w3.org/2000/svg" viewBox="0 0 16 16" enable-background="new 0 0 16 16"><style type="text/css">.icon-canvas-transparent{opacity:0;fill:#F6F6F6;} .icon-vs-out{fill:#F6F6F6;} .icon-vs-fg{fill:#F0EFF1;} .icon-disabled-grey{fill:#848484;}</style><path class="icon-canvas-transparent" d="M16 16h-16v-16h16v16z" id="canvas"/><path class="icon-vs-out" d="M15.998 2.154c-.026.795-.444 1.604-1.146 2.219l-3.852 3.369v1.494l-3.382 6.764h-1.033l-6.585-6.586v-1.032l6.764-3.382h1.494l3.371-3.851c.639-.73 1.475-1.149 2.297-1.149.57 0 1.096.212 1.479.596.404.403.614.957.593 1.558z" id="outline"/><path class="icon-disabled-grey" d="M14.697 1.303c-.552-.553-1.59-.326-2.316.505l-4.001 4.572-.38-.38h-1l-6 3 6 6 3-6v-1l-.379-.38 4.571-4c.831-.727 1.058-1.765.505-2.317zm-7.971 12.008l-.998-.998 1.48-2.22-.402-.268-1.427 2.141-1.345-1.345 2.14-1.427-.267-.402-2.221 1.481-.998-.999 3.724-1.862 2.176 2.176-1.862 3.723z" id="iconBg"/><path class="icon-vs-fg" d="M8.588 9.588l-1.862 3.724-.998-.998 1.48-2.22-.402-.269-1.427 2.141-1.345-1.345 2.14-1.427-.267-.402-2.221 1.481-.998-.999 3.724-1.862 2.176 2.176z" id="iconFg"/></svg>