<svg xmlns="http://www.w3.org/2000/svg" viewBox="0 0 16 16"><style type="text/css">.icon-canvas-transparent{opacity:0;fill:#F6F6F6;} .icon-vs-out{fill:#F6F6F6;} .icon-vs-bg{fill:#424242;} .icon-vs-fg{fill:#F0EFF1;}</style><path class="icon-canvas-transparent" d="M16 16h-16v-16h16v16z" id="canvas"/><path class="icon-vs-out" d="M16 5.586v6.828l-1.586 1.586h-12.828l-1.586-1.586v-6.828l1.586-1.586h2l2-2h4.828l2 2h2l1.586 1.586z" id="outline"/><path class="icon-vs-bg" d="M14 5h-2l-2-2h-4l-2 2h-2l-1 1v6l1 1h12l1-1v-6l-1-1zm-6 7c-1.656 0-3-1.344-3-3s1.344-3 3-3 3 1.344 3 3-1.344 3-3 3zm6-4h-2v-2h2v2zm-6 3c-1.104 0-2-.896-2-2s.896-2 2-2 2 .896 2 2-.896 2-2 2z" id="iconBg"/><path class="icon-vs-fg" d="M8 6c-1.656 0-3 1.344-3 3s1.344 3 3 3 3-1.344 3-3-1.344-3-3-3zm0 5c-1.104 0-2-.896-2-2s.896-2 2-2 2 .896 2 2-.896 2-2 2zm6-5v2h-2v-2h2z" id="iconFg"/></svg>